<svg id="visual" viewBox="0 0 1920 1080" width="1920" height="1080" xmlns="http://www.w3.org/2000/svg" xmlns:xlink="http://www.w3.org/1999/xlink" version="1.1"><g stroke-width="1" stroke-linejoin="bevel"><path d="M881.3 569L674 707L887.3 736Z" fill="#00243e" stroke="#00243e"></path><path d="M881.3 569L628 524L674 707Z" fill="#001829" stroke="#001829"></path><path d="M674 707L866.3 875L887.3 736Z" fill="#00365f" stroke="#00365f"></path><path d="M392.7 744L661 885L674 707Z" fill="#001829" stroke="#001829"></path><path d="M674 707L661 885L866.3 875Z" fill="#003054" stroke="#003054"></path><path d="M881.3 569L832.3 383L628 524Z" fill="#004376" stroke="#004376"></path><path d="M887.3 736L1063.7 549L881.3 569Z" fill="#00508f" stroke="#00508f"></path><path d="M881.3 569L1061.7 382L832.3 383Z" fill="#00365f" stroke="#00365f"></path><path d="M1104.7 751L1063.7 549L887.3 736Z" fill="#003c6b" stroke="#003c6b"></path><path d="M1076.7 900L1104.7 751L887.3 736Z" fill="#00243e" stroke="#00243e"></path><path d="M832.3 383L609 377L628 524Z" fill="#002a49" stroke="#002a49"></path><path d="M628 524L398.7 546L674 707Z" fill="#001e33" stroke="#001e33"></path><path d="M866.3 875L1076.7 900L887.3 736Z" fill="#03569b" stroke="#03569b"></path><path d="M888.3 1080L1076.7 900L866.3 875Z" fill="#004376" stroke="#004376"></path><path d="M1312 501L1061.7 382L1063.7 549Z" fill="#001829" stroke="#001829"></path><path d="M1063.7 549L1061.7 382L881.3 569Z" fill="#002a49" stroke="#002a49"></path><path d="M832.3 383L617 201L609 377Z" fill="#003054" stroke="#003054"></path><path d="M609 377L398.7 546L628 524Z" fill="#03569b" stroke="#03569b"></path><path d="M398.7 546L392.7 744L674 707Z" fill="#002a49" stroke="#002a49"></path><path d="M392.7 744L458.7 937L661 885Z" fill="#003054" stroke="#003054"></path><path d="M661 885L888.3 1080L866.3 875Z" fill="#001e33" stroke="#001e33"></path><path d="M633 1080L888.3 1080L661 885Z" fill="#001e33" stroke="#001e33"></path><path d="M458.7 937L633 1080L661 885Z" fill="#00365f" stroke="#00365f"></path><path d="M1061.7 382L887.3 206L832.3 383Z" fill="#002a49" stroke="#002a49"></path><path d="M887.3 206L617 201L832.3 383Z" fill="#00365f" stroke="#00365f"></path><path d="M609 377L419.7 333L398.7 546Z" fill="#003c6b" stroke="#003c6b"></path><path d="M617 201L419.7 333L609 377Z" fill="#004376" stroke="#004376"></path><path d="M1280 916L1289 752L1104.7 751Z" fill="#001829" stroke="#001829"></path><path d="M1104.7 751L1289 752L1063.7 549Z" fill="#004376" stroke="#004376"></path><path d="M1280 916L1104.7 751L1076.7 900Z" fill="#00365f" stroke="#00365f"></path><path d="M1291 328L1043.7 215L1061.7 382Z" fill="#001e33" stroke="#001e33"></path><path d="M1061.7 382L1043.7 215L887.3 206Z" fill="#003054" stroke="#003054"></path><path d="M888.3 1080L1090.7 1080L1076.7 900Z" fill="#00365f" stroke="#00365f"></path><path d="M1289 752L1312 501L1063.7 549Z" fill="#00508f" stroke="#00508f"></path><path d="M1090.7 1080L1280 916L1076.7 900Z" fill="#001e33" stroke="#001e33"></path><path d="M1289 752L1475.3 749L1312 501Z" fill="#00365f" stroke="#00365f"></path><path d="M204.3 937L400.7 1080L458.7 937Z" fill="#002a49" stroke="#002a49"></path><path d="M458.7 937L400.7 1080L633 1080Z" fill="#001829" stroke="#001829"></path><path d="M617 201L410.7 218L419.7 333Z" fill="#00365f" stroke="#00365f"></path><path d="M183.3 531L176.3 710L398.7 546Z" fill="#03569b" stroke="#03569b"></path><path d="M1312 501L1291 328L1061.7 382Z" fill="#00508f" stroke="#00508f"></path><path d="M398.7 546L176.3 710L392.7 744Z" fill="#00365f" stroke="#00365f"></path><path d="M392.7 744L204.3 937L458.7 937Z" fill="#00243e" stroke="#00243e"></path><path d="M183.3 531L398.7 546L179.3 338Z" fill="#003c6b" stroke="#003c6b"></path><path d="M179.3 338L398.7 546L419.7 333Z" fill="#004376" stroke="#004376"></path><path d="M176.3 710L204.3 937L392.7 744Z" fill="#001e33" stroke="#001e33"></path><path d="M1082.7 0L859.3 0L887.3 206Z" fill="#004376" stroke="#004376"></path><path d="M887.3 206L663 0L617 201Z" fill="#003c6b" stroke="#003c6b"></path><path d="M617 201L416.7 0L410.7 218Z" fill="#004376" stroke="#004376"></path><path d="M1082.7 0L887.3 206L1043.7 215Z" fill="#003054" stroke="#003054"></path><path d="M1090.7 1080L1298 1080L1280 916Z" fill="#00508f" stroke="#00508f"></path><path d="M1459.3 881L1475.3 749L1289 752Z" fill="#001829" stroke="#001829"></path><path d="M859.3 0L663 0L887.3 206Z" fill="#00365f" stroke="#00365f"></path><path d="M410.7 218L179.3 338L419.7 333Z" fill="#004982" stroke="#004982"></path><path d="M0 577L0 717L176.3 710Z" fill="#00508f" stroke="#00508f"></path><path d="M234.3 143L179.3 338L410.7 218Z" fill="#004376" stroke="#004376"></path><path d="M1459.3 881L1289 752L1280 916Z" fill="#004982" stroke="#004982"></path><path d="M1312 501L1475.3 397L1291 328Z" fill="#00508f" stroke="#00508f"></path><path d="M1298 1080L1459.3 881L1280 916Z" fill="#004376" stroke="#004376"></path><path d="M204.3 937L224.3 1080L400.7 1080Z" fill="#00365f" stroke="#00365f"></path><path d="M1462.3 211L1302 156L1291 328Z" fill="#001829" stroke="#001829"></path><path d="M1291 328L1302 156L1043.7 215Z" fill="#001e33" stroke="#001e33"></path><path d="M1302 156L1082.7 0L1043.7 215Z" fill="#00243e" stroke="#00243e"></path><path d="M1521.3 507L1475.3 397L1312 501Z" fill="#002a49" stroke="#002a49"></path><path d="M1733.7 712L1521.3 507L1475.3 749Z" fill="#002a49" stroke="#002a49"></path><path d="M1475.3 749L1521.3 507L1312 501Z" fill="#00243e" stroke="#00243e"></path><path d="M663 0L416.7 0L617 201Z" fill="#004376" stroke="#004376"></path><path d="M416.7 0L234.3 143L410.7 218Z" fill="#003c6b" stroke="#003c6b"></path><path d="M176.3 710L0 895L204.3 937Z" fill="#002a49" stroke="#002a49"></path><path d="M204.3 937L0 1080L224.3 1080Z" fill="#003c6b" stroke="#003c6b"></path><path d="M0 577L176.3 710L183.3 531Z" fill="#00508f" stroke="#00508f"></path><path d="M0 577L183.3 531L0 337Z" fill="#00508f" stroke="#00508f"></path><path d="M0 337L183.3 531L179.3 338Z" fill="#002a49" stroke="#002a49"></path><path d="M1688.7 330L1462.3 211L1475.3 397Z" fill="#001e33" stroke="#001e33"></path><path d="M1475.3 397L1462.3 211L1291 328Z" fill="#004982" stroke="#004982"></path><path d="M1302 156L1279 0L1082.7 0Z" fill="#00508f" stroke="#00508f"></path><path d="M1467.3 0L1279 0L1302 156Z" fill="#002a49" stroke="#002a49"></path><path d="M0 717L0 895L176.3 710Z" fill="#00243e" stroke="#00243e"></path><path d="M1298 1080L1523.3 1080L1459.3 881Z" fill="#004376" stroke="#004376"></path><path d="M1459.3 881L1687.7 934L1475.3 749Z" fill="#001e33" stroke="#001e33"></path><path d="M0 211L0 337L179.3 338Z" fill="#001829" stroke="#001829"></path><path d="M416.7 0L197.3 0L234.3 143Z" fill="#00508f" stroke="#00508f"></path><path d="M234.3 143L0 211L179.3 338Z" fill="#003c6b" stroke="#003c6b"></path><path d="M0 895L0 1080L204.3 937Z" fill="#001829" stroke="#001829"></path><path d="M0 0L0 211L234.3 143Z" fill="#001829" stroke="#001829"></path><path d="M1523.3 1080L1687.7 934L1459.3 881Z" fill="#001e33" stroke="#001e33"></path><path d="M1686.7 216L1467.3 0L1462.3 211Z" fill="#003c6b" stroke="#003c6b"></path><path d="M1688.7 330L1475.3 397L1521.3 507Z" fill="#00365f" stroke="#00365f"></path><path d="M1462.3 211L1467.3 0L1302 156Z" fill="#00365f" stroke="#00365f"></path><path d="M1687.7 934L1733.7 712L1475.3 749Z" fill="#004982" stroke="#004982"></path><path d="M1733.7 712L1735.7 576L1521.3 507Z" fill="#004376" stroke="#004376"></path><path d="M1735.7 576L1688.7 330L1521.3 507Z" fill="#00508f" stroke="#00508f"></path><path d="M1523.3 1080L1683.7 1080L1687.7 934Z" fill="#00243e" stroke="#00243e"></path><path d="M1920 906L1920 732L1733.7 712Z" fill="#001e33" stroke="#001e33"></path><path d="M1920 209L1686.7 216L1688.7 330Z" fill="#001829" stroke="#001829"></path><path d="M1688.7 330L1686.7 216L1462.3 211Z" fill="#00508f" stroke="#00508f"></path><path d="M197.3 0L0 0L234.3 143Z" fill="#00365f" stroke="#00365f"></path><path d="M1733.7 712L1920 732L1735.7 576Z" fill="#001829" stroke="#001829"></path><path d="M1735.7 576L1920 385L1688.7 330Z" fill="#00243e" stroke="#00243e"></path><path d="M1920 906L1733.7 712L1687.7 934Z" fill="#003054" stroke="#003054"></path><path d="M1920 732L1920 535L1735.7 576Z" fill="#001829" stroke="#001829"></path><path d="M1920 209L1730.7 0L1686.7 216Z" fill="#004376" stroke="#004376"></path><path d="M1686.7 216L1730.7 0L1467.3 0Z" fill="#03569b" stroke="#03569b"></path><path d="M1920 1080L1920 906L1687.7 934Z" fill="#03569b" stroke="#03569b"></path><path d="M1920 535L1920 385L1735.7 576Z" fill="#00243e" stroke="#00243e"></path><path d="M1683.7 1080L1920 1080L1687.7 934Z" fill="#001829" stroke="#001829"></path><path d="M1920 385L1920 209L1688.7 330Z" fill="#001829" stroke="#001829"></path><path d="M1920 209L1920 0L1730.7 0Z" fill="#001829" stroke="#001829"></path></g></svg>