<svg id="visual" viewBox="0 0 1920 1080" width="1920" height="1080" xmlns="http://www.w3.org/2000/svg" xmlns:xlink="http://www.w3.org/1999/xlink" version="1.1"><rect width="1920" height="1080" fill="#001829"></rect><g><g transform="translate(1225 56)"><path d="M0 -185.4L160.5 -92.7L160.5 92.7L0 185.4L-160.5 92.7L-160.5 -92.7Z" fill="#297EA6"></path></g><g transform="translate(1462 478)"><path d="M0 -143L123.8 -71.5L123.8 71.5L0 143L-123.8 71.5L-123.8 -71.5Z" fill="#297EA6"></path></g><g transform="translate(56 499)"><path d="M0 -58L50.2 -29L50.2 29L0 58L-50.2 29L-50.2 -29Z" fill="#297EA6"></path></g><g transform="translate(1913 646)"><path d="M0 -182L157.6 -91L157.6 91L0 182L-157.6 91L-157.6 -91Z" fill="#297EA6"></path></g><g transform="translate(490 237)"><path d="M0 -183L158.5 -91.5L158.5 91.5L0 183L-158.5 91.5L-158.5 -91.5Z" fill="#297EA6"></path></g><g transform="translate(810 1058)"><path d="M0 -154L133.4 -77L133.4 77L0 154L-133.4 77L-133.4 -77Z" fill="#297EA6"></path></g><g transform="translate(281 997)"><path d="M0 -112L97 -56L97 56L0 112L-97 56L-97 -56Z" fill="#297EA6"></path></g><g transform="translate(1616 116)"><path d="M0 -54L46.8 -27L46.8 27L0 54L-46.8 27L-46.8 -27Z" fill="#297EA6"></path></g></g></svg>