<svg id="visual" viewBox="0 0 1920 1080" width="1920" height="1080" xmlns="http://www.w3.org/2000/svg" xmlns:xlink="http://www.w3.org/1999/xlink" version="1.1"><rect width="1920" height="1080" fill="#001829"></rect><g><g transform="translate(428 201)"><path d="M0 -185.4L160.5 -92.7L160.5 92.7L0 185.4L-160.5 92.7L-160.5 -92.7Z" fill="#0476bd"></path></g><g transform="translate(1656 687)"><path d="M0 -121L104.8 -60.5L104.8 60.5L0 121L-104.8 60.5L-104.8 -60.5Z" fill="#0476bd"></path></g><g transform="translate(757 739)"><path d="M0 -100L86.6 -50L86.6 50L0 100L-86.6 50L-86.6 -50Z" fill="#0476bd"></path></g><g transform="translate(850 223)"><path d="M0 -161L139.4 -80.5L139.4 80.5L0 161L-139.4 80.5L-139.4 -80.5Z" fill="#0476bd"></path></g><g transform="translate(26 715)"><path d="M0 -173L149.8 -86.5L149.8 86.5L0 173L-149.8 86.5L-149.8 -86.5Z" fill="#0476bd"></path></g><g transform="translate(1617 239)"><path d="M0 -146L126.4 -73L126.4 73L0 146L-126.4 73L-126.4 -73Z" fill="#0476bd"></path></g><g transform="translate(1116 928)"><path d="M0 -59L51.1 -29.5L51.1 29.5L0 59L-51.1 29.5L-51.1 -29.5Z" fill="#0476bd"></path></g><g transform="translate(1254 521)"><path d="M0 -173L149.8 -86.5L149.8 86.5L0 173L-149.8 86.5L-149.8 -86.5Z" fill="#0476bd"></path></g></g></svg>