<svg xmlns="http://www.w3.org/2000/svg" version="1.1" xmlns:xlink="http://www.w3.org/1999/xlink" xmlns:svgjs="http://svgjs.dev/svgjs" width="1000" height="1000" viewBox="0 0 1000 1000"><rect width="1000" height="1000" fill="#ffffff"></rect><g transform="matrix(0.7,0,0,0.7,150.0000000000001,106.25)"><svg viewBox="0 0 320 360" data-background-color="#ffffff" preserveAspectRatio="xMidYMid meet" height="1125" width="1000" xmlns="http://www.w3.org/2000/svg" xmlns:xlink="http://www.w3.org/1999/xlink"><defs></defs><g id="tight-bounds" transform="matrix(1,0,0,1,0,0)"><svg viewBox="0 0 320 360" height="360" width="320"><g><svg></svg></g><g><svg viewBox="0 0 320 360" height="360" width="320"><g><path d="M20.961 227.22l3.726 4.658-1.863-6.056c-0.466-2.795-3.726 0.466-1.863 1.398M25.153 224.425c1.397 2.329 2.795 4.658 2.795 6.987 0 3.261 2.795 4.658 5.123 5.589-3.261-3.726-5.124-13.974-7.918-12.576M204.017 26.929c7.918 0 15.371-0.932 23.756 0.931 20.495 5.124 37.729 15.371 49.374 29.811l32.606 52.169c1.397 13.042 4.192 27.482 3.726 43.319 3.261 0 2.795-4.658 6.521-5.59-3.726 9.316-5.59 20.961-6.521 34.469-2.329-7.453 0-18.632 0.466-24.687-3.261 5.124-5.124 1.397-5.124-0.932 0.466-3.726-1.397-3.261-2.795-4.658-5.124-4.658-8.384-9.782-12.11-17.7 2.329-6.055 2.795-14.905-4.658-19.563-2.329-1.397-5.124-3.726-6.521-7.453-1.863-5.124-5.124-11.179-4.193-19.097 0.466-2.329-6.987 5.124-11.179 1.863-18.166-12.576-36.332-27.016-58.224-39.127-11.645 0-20.029-4.192-24.221-9.316-3.726-4.658-0.932-10.713 4.658-11.179 3.261 0 6.987-0.932 9.782 0.932 0.466-1.863 2.329-4.192 4.657-4.192M157.904 16.215l0.932 0.466c4.658 0.932 6.987 7.453 12.11 5.124 0 3.261 0.466 6.521-0.466 8.85-1.397 3.726-5.59 3.726-8.85 3.726-31.208-1.863-49.374 11.179-68.471 22.358-5.124 3.261-10.713 5.59-14.906 9.782-20.029 18.632-41.921 35.866-47.045 70.335l-4.192 38.195c-0.466 4.192-5.124 8.384-4.192 13.508l3.26 22.824c-3.261-3.261-5.124 0.932-4.192 2.795 0.466 1.397 2.329 6.055 5.124 1.863 3.726 6.987 7.453 20.495 12.576 26.55 15.837 18.632 36.332 35.4 53.101 52.169 4.192-0.932 7.453-0.932 8.384-3.727 1.397 2.795-1.397 5.59-3.726 6.056 7.453 4.658 15.837 8.85 27.016 9.781 14.44 0.932 27.948 3.261 40.524 6.522 6.521-1.863 13.042-2.795 20.029-3.261 2.329 0 3.726-3.726 6.521-4.658l0.466-4.658c2.795 4.192 2.329-1.397 0.466-4.192 3.261 2.795 4.192 5.124 5.589 6.987 0-1.397 3.726-6.521 3.727-0.466l0.931-6.055c1.397-0.932 1.863 5.124 3.261 0.931 1.397-4.192 4.192-0.932 6.987-2.329-0.932 1.863-0.466 5.59 2.794 3.261l3.727-3.261c2.329 5.59 6.055 3.261 7.918 2.329 20.495-13.042 40.99-28.413 60.553-43.784l-0.466 6.055 2.329-7.453c2.329 2.329 4.192 0.466 5.124-0.931 2.795-4.658 6.521-9.316 12.577-13.508-7.453 20.029-16.303 35.866-27.482 48.908l-4.658 5.59c0 3.261-0.932 7.453-4.658 7.918-1.863 0.466-5.59-0.932-8.384 1.863-1.397 1.863 3.261 5.59-0.466 2.795-3.261-2.329-6.521 0-10.248 0.932-2.795 0.932 1.863 3.726 2.795 5.589 0.932 1.863 1.863 3.726 1.398 6.056l-5.124-5.59c-6.055 3.261-9.782 9.316-14.906 13.974-2.329 1.863-1.397 5.124-1.397 7.918-3.261 0-6.987-0.932-8.85 0.932-1.397 1.863-0.932 4.658-0.932 7.453-4.658-0.466-5.124-7.453-9.315-6.056-4.192 0.932-8.85 1.397-12.577 3.727 2.795 5.59-4.658 2.329-3.726 3.26-6.987-4.192-13.042-7.453-20.495-4.658-15.837-5.124-35.4-2.795-49.84-0.931 0-2.329 0.466-4.658-0.466-5.124-0.932 2.329-3.726 1.397-3.26 1.397-8.85-6.055-17.7-9.782-27.016-14.905-8.384 0.932-16.303-3.261-18.632-5.59-6.521-6.055-13.974-2.795-20.029-4.192-13.042-3.261-17.7-16.769-19.098-26.084-0.932-4.658-4.658-6.521-6.055-6.056-6.055-19.563-15.371-37.263-22.824-55.429-1.863-4.658-1.397-9.316-1.397-14.44 2.329 0.932 4.658 0.466 4.192-2.794-2.329-15.371-7.918-27.016-13.974-38.195 3.261-15.837 3.726-34.469 11.179-48.443 6.521-12.576 18.632-19.098 27.016-29.811 2.795-3.726 2.795-8.85 5.59-12.11 9.316-9.316 18.632-19.098 28.879-27.482 4.658-3.726 10.247 0 17.234-1.397 2.329-8.384 11.645-15.837 20.495-13.508 3.726 0.932 11.179-8.85 13.508-9.782 3.726-1.397 1.863 3.726 1.863 6.987 8.85-6.987 20.961-10.713 32.14-14.906" fill="#0080ff" data-fill-palette-color="tertiary"></path></g><g transform="matrix(1,0,0,1,87.67338131286127,90)"><svg viewBox="0 0 144.65323737427747 180" height="180" width="144.65323737427747"><g><svg viewBox="0 0 144.65323737427747 180" height="180" width="144.65323737427747"><g><svg viewBox="0 0 192 238.9161876175578" height="180" width="144.65323737427747"><g transform="matrix(1,0,0,1,0,121.36935766382031)"><svg viewBox="0 0 192 117.5468299537375" height="117.5468299537375" width="192"><g><svg viewBox="0 0 192 117.5468299537375" height="117.5468299537375" width="192"><g><svg viewBox="0 0 192 82.4729981378026" height="82.4729981378026" width="192"><g transform="matrix(1,0,0,1,0,0)"><svg width="192" viewBox="1.5 -34.599998474121094 80.55000305175781 34.599998474121094" height="82.4729981378026" data-palette-color="#0080ff"><path d="M8.55 0L1.5-34.6 5.5-34.6 11.4-3.4 12.85-3.4 19.9-34.3 24.4-34.3 31.45-3.4 32.9-3.4 38.8-34.6 42.75-34.6 35.75 0 28.7 0 22.15-29.55 15.6 0 8.55 0ZM52.4 0L48.55 0 48.55-34.6 55.5-34.6 65.3-5.35 75.1-34.6 82.05-34.6 82.05 0 78.2 0 78.2-30.5 77.5-30.5 67.45-1.25 63.15-1.25 53.1-30.5 52.4-30.5 52.4 0Z" opacity="1" transform="matrix(1,0,0,1,0,0)" fill="#0080ff" class="undefined-text-0" data-fill-palette-color="primary" id="text-0"></path></svg></g></svg></g><g transform="matrix(1,0,0,1,0,94.50778791806331)"><svg viewBox="0 0 192 23.039042035674196" height="23.039042035674196" width="192"><g transform="matrix(1,0,0,1,0,0)"><svg width="192" viewBox="4 -36.54999923706055 400.80999755859375 48.099998474121094" height="23.039042035674196" data-palette-color="#0080ff"><path d="M29.5-6Q29.5-2.3 30.2-0.45L30.2-0.45Q29.8-0.05 29.1 0.28 28.4 0.6 27.55 0.6L27.55 0.6Q26.4 0.6 25.68-0.08 24.95-0.75 24.95-1.9L24.95-1.9 24.9-16.95 9.3-16.95 9.3-6Q9.3-2.3 10-0.45L10-0.45Q8.8 0.6 7.35 0.6L7.35 0.6Q6.15 0.6 5.43-0.08 4.7-0.75 4.7-1.9L4.7-1.9 4.7-28.6Q4.7-32.1 4-34.2L4-34.2Q4.4-34.6 5.08-34.9 5.75-35.2 6.6-35.2L6.6-35.2Q7.8-35.2 8.55-34.55 9.3-33.9 9.3-32.75L9.3-32.75 9.3-19.6 24.9-19.6 24.9-28.6Q24.9-32.3 24.2-34.2L24.2-34.2Q25.3-35.2 26.85-35.2L26.85-35.2Q28-35.2 28.75-34.55 29.5-33.9 29.5-32.75L29.5-32.75 29.5-6ZM56.8-6.6Q57.55-6.3 57.55-5.45L57.55-5.45Q57.55-4.9 57.2-4.05L57.2-4.05Q56.3-1.75 53.9-0.55 51.5 0.65 48.2 0.65L48.2 0.65Q42.65 0.65 39.47-2.8 36.3-6.25 36.3-12.65L36.3-12.65Q36.3-18.95 39.45-22.55 42.6-26.15 48.4-26.15L48.4-26.15Q52.6-26.15 55.17-24.25 57.75-22.35 57.75-18.85L57.75-18.85Q57.75-15.15 54.75-13.2 51.75-11.25 46.5-11.25L46.5-11.25Q43.85-11.25 41.2-11.55L41.2-11.55Q41.8-2.35 49.35-2.35L49.35-2.35Q52.05-2.35 54.02-3.48 56-4.6 56.8-6.6L56.8-6.6ZM48.2-24.25Q44.95-24.25 43.07-21.45 41.2-18.65 41.15-13.4L41.15-13.4Q42.2-13.3 44.5-13.2L44.5-13.2Q48.3-13.2 50.6-14.58 52.9-15.95 52.9-19.5L52.9-19.5Q52.9-22.1 51.55-23.18 50.2-24.25 48.2-24.25L48.2-24.25ZM86.55-3.95Q87.1-3.15 87.1-2.25L87.1-2.25Q87.1-1.1 86.02-0.3 84.95 0.5 83.4 0.5L83.4 0.5Q81.1 0.5 79.95-1.1 78.8-2.7 78.8-6.1L78.8-6.1 78.8-6.9Q77.25-3.5 74.5-1.48 71.75 0.55 68.35 0.55L68.35 0.55Q65.45 0.55 63.75-1.03 62.05-2.6 62.05-5.25L62.05-5.25Q62.05-8.25 64.35-10.33 66.65-12.4 70.4-13.45L70.4-13.45Q74.4-14.5 78.55-14.35L78.55-14.35 78.55-15.6Q78.55-20.05 77.17-22.15 75.8-24.25 72.6-24.25L72.6-24.25Q70.55-24.25 69.15-23.3 67.75-22.35 67.75-20.25L67.75-20.25Q67.75-19.15 68.27-18.13 68.8-17.1 69.85-16.7L69.85-16.7Q68.95-15.65 67.2-15.65L67.2-15.65Q65.4-15.65 64.3-16.98 63.2-18.3 63.2-20.1L63.2-20.1Q63.2-23 65.82-24.58 68.45-26.15 73-26.15L73-26.15Q78.25-26.15 80.72-23.55 83.2-20.95 83.2-15.35L83.2-15.35 83.2-5.65Q83.2-3 84.95-3L84.95-3Q85.35-3 85.8-3.25 86.25-3.5 86.55-3.95L86.55-3.95ZM70.3-2.55Q72.15-2.55 74.1-3.98 76.05-5.4 77.35-7.73 78.65-10.05 78.7-12.65L78.7-12.65Q76.85-12.75 74.8-12.48 72.75-12.2 71.35-11.6L71.35-11.6Q69.25-10.8 68.12-9.45 67-8.1 67-6.25L67-6.25Q67-4.65 67.8-3.6 68.6-2.55 70.3-2.55L70.3-2.55ZM96.39 0.5Q94.04 0.5 92.72-1.05 91.39-2.6 91.39-5.35L91.39-5.35 91.39-34.05Q91.39-35.25 92.12-35.9 92.84-36.55 94.04-36.55L94.04-36.55Q95.59-36.55 96.64-35.5L96.64-35.5Q96.19-34.05 96.07-32 95.94-29.95 95.94-25.75L95.94-25.75 95.89-5.65Q95.89-3 97.79-3L97.79-3Q98.34-3 98.84-3.25 99.34-3.5 99.54-3.95L99.54-3.95Q100.14-3.15 100.14-2.25L100.14-2.25Q100.14-1.05 99.04-0.28 97.94 0.5 96.39 0.5L96.39 0.5ZM112.04-25.45Q112.89-25.45 114.34-25.5 115.79-25.55 116.64-25.6L116.64-25.6 116.59-24.4Q116.54-23.8 116.19-23.48 115.84-23.15 115.34-23.15L115.34-23.15 110.39-23.15 110.39-21.35 110.34-5.65Q110.34-2.95 112.74-2.95L112.74-2.95Q113.44-2.95 114.12-3.2 114.79-3.45 114.99-3.9L114.99-3.9Q115.59-3.1 115.59-2.2L115.59-2.2Q115.59-0.95 114.34-0.2 113.09 0.55 111.09 0.55L111.09 0.55Q108.64 0.55 107.24-1 105.84-2.55 105.84-5.3L105.84-5.3 105.84-23.15 105.09-23.15Q103.09-23.15 102.09-23L102.09-23 102.14-24.25Q102.19-24.85 102.54-25.15 102.89-25.45 103.44-25.45L103.44-25.45 105.84-25.45 105.84-29.65Q105.84-30.8 106.57-31.45 107.29-32.1 108.49-32.1L108.49-32.1Q109.89-32.1 111.04-31.1L111.04-31.1Q110.49-29.2 110.44-25.45L110.44-25.45 112.04-25.45ZM142.84-6Q142.84-2.5 143.54-0.45L143.54-0.45Q142.39 0.6 140.99 0.6L140.99 0.6Q139.84 0.6 139.11-0.08 138.39-0.75 138.39-1.9L138.39-1.9 138.34-15.2Q138.34-19.55 137.24-21.65 136.14-23.75 133.44-23.75L133.44-23.75Q131.74-23.75 130.21-22.53 128.69-21.3 127.71-18.65 126.74-16 126.74-12L126.74-12Q126.74-5.75 126.86-3.8 126.99-1.85 127.54-0.4L127.54-0.4Q126.44 0.6 124.94 0.6L124.94 0.6Q123.79 0.6 123.04-0.13 122.29-0.85 122.29-2.1L122.29-2.1 122.29-34.05Q122.24-35.25 122.94-35.88 123.64-36.5 124.74-36.5L124.74-36.5Q125.59-36.5 126.36-36.18 127.14-35.85 127.54-35.5L127.54-35.5Q127.09-34.1 126.94-32.18 126.79-30.25 126.74-26.9L126.74-26.9 126.69-20.5Q127.79-23.2 129.89-24.68 131.99-26.15 134.84-26.15L134.84-26.15Q142.84-26.15 142.84-15.8L142.84-15.8 142.84-6ZM170.54-23.45L170.59-2.5Q170.59 11.55 158.59 11.55L158.59 11.55Q154.84 11.55 152.34 10.28 149.84 9 149.84 6.2L149.84 6.2Q149.84 4.75 150.76 3.78 151.69 2.8 153.19 2.8L153.19 2.8Q154.69 2.8 155.29 3.65L155.29 3.65Q154.64 4.1 154.34 4.78 154.04 5.45 154.04 6.05L154.04 6.05Q154.04 7.9 155.36 8.85 156.69 9.8 158.59 9.8L158.59 9.8Q166.34 9.8 166.34-2.25L166.34-2.25Q166.34-3.25 166.54-5.95L166.54-5.95Q165.49-2.9 163.31-1.25 161.14 0.4 157.94 0.4L157.94 0.4Q154.09 0.4 152.21-2 150.34-4.4 150.34-10L150.34-10 150.34-19.55Q150.34-23.05 149.64-25.1L149.64-25.1Q150.89-26.15 152.24-26.15L152.24-26.15Q153.39-26.15 154.11-25.48 154.84-24.8 154.84-23.65L154.84-23.65 154.84-10.6Q154.84-6.1 155.84-4.05 156.84-2 159.24-2L159.24-2Q162.19-2 164.14-4.93 166.09-7.85 166.09-13.8L166.09-13.8Q166.09-19.9 165.99-21.8 165.89-23.7 165.34-25.15L165.34-25.15Q166.49-26.15 167.94-26.15L167.94-26.15Q169.04-26.15 169.79-25.43 170.54-24.7 170.54-23.45L170.54-23.45ZM207.48-6.6Q208.23-6.3 208.23-5.45L208.23-5.45Q208.23-4.9 207.88-4.05L207.88-4.05Q206.98-1.75 204.58-0.55 202.18 0.65 198.88 0.65L198.88 0.65Q193.33 0.65 190.16-2.8 186.98-6.25 186.98-12.65L186.98-12.65Q186.98-18.95 190.13-22.55 193.28-26.15 199.08-26.15L199.08-26.15Q203.28-26.15 205.86-24.25 208.43-22.35 208.43-18.85L208.43-18.85Q208.43-15.15 205.43-13.2 202.43-11.25 197.18-11.25L197.18-11.25Q194.53-11.25 191.88-11.55L191.88-11.55Q192.48-2.35 200.03-2.35L200.03-2.35Q202.73-2.35 204.71-3.48 206.68-4.6 207.48-6.6L207.48-6.6ZM198.88-24.25Q195.63-24.25 193.76-21.45 191.88-18.65 191.83-13.4L191.83-13.4Q192.88-13.3 195.18-13.2L195.18-13.2Q198.98-13.2 201.28-14.58 203.58-15.95 203.58-19.5L203.58-19.5Q203.58-22.1 202.23-23.18 200.88-24.25 198.88-24.25L198.88-24.25ZM231.83-25.85Q233.13-25.85 233.75-25.35 234.38-24.85 234.38-23.8L234.38-23.8Q234.38-22.55 233.83-21.3L233.83-21.3 225.68-0.15Q224.13 0.6 222.63 0.6L222.63 0.6Q220.58 0.6 220.03-1.05L220.03-1.05 212.38-22.3Q212.33-22.5 211.98-23.38 211.63-24.25 211.13-24.75L211.13-24.75Q212.13-25.85 213.78-25.85L213.78-25.85Q214.83-25.85 215.55-25.38 216.28-24.9 216.48-24L216.48-24 223.28-2.3 229.53-22.4Q229.78-23.8 229.78-24.15L229.78-24.15Q229.78-25.05 229.53-25.4L229.53-25.4Q230.63-25.85 231.83-25.85L231.83-25.85ZM257.78-6.6Q258.53-6.3 258.53-5.45L258.53-5.45Q258.53-4.9 258.18-4.05L258.18-4.05Q257.28-1.75 254.88-0.55 252.48 0.65 249.18 0.65L249.18 0.65Q243.63 0.65 240.45-2.8 237.28-6.25 237.28-12.65L237.28-12.65Q237.28-18.95 240.43-22.55 243.58-26.15 249.38-26.15L249.38-26.15Q253.58-26.15 256.15-24.25 258.73-22.35 258.73-18.85L258.73-18.85Q258.73-15.15 255.73-13.2 252.73-11.25 247.48-11.25L247.48-11.25Q244.83-11.25 242.18-11.55L242.18-11.55Q242.78-2.35 250.33-2.35L250.33-2.35Q253.03-2.35 255-3.48 256.98-4.6 257.78-6.6L257.78-6.6ZM249.18-24.25Q245.93-24.25 244.05-21.45 242.18-18.65 242.13-13.4L242.13-13.4Q243.18-13.3 245.48-13.2L245.48-13.2Q249.28-13.2 251.58-14.58 253.88-15.95 253.88-19.5L253.88-19.5Q253.88-22.1 252.53-23.18 251.18-24.25 249.18-24.25L249.18-24.25ZM276.02-26.15Q278.62-26.15 280.25-24.73 281.87-23.3 281.87-20.85L281.87-20.85Q281.87-19.1 280.87-18 279.87-16.9 278.47-16.9L278.47-16.9Q277.22-16.9 276.67-17.55L276.67-17.55Q277.22-18.4 277.42-19.1 277.62-19.8 277.62-20.75L277.62-20.75Q277.62-23.75 274.87-23.75L274.87-23.75Q272.72-23.75 271.3-20.85 269.87-17.95 269.87-12L269.87-12Q269.87-5.85 269.97-3.93 270.07-2 270.62-0.55L270.62-0.55Q270.22-0.15 269.55 0.15 268.87 0.45 267.97 0.5L267.97 0.5Q266.87 0.5 266.12-0.23 265.37-0.95 265.37-2.2L265.37-2.2 265.37-20.05Q265.37-21.4 265.05-22 264.72-22.6 263.97-22.6L263.97-22.6Q263.02-22.6 262.67-21.9L262.67-21.9Q262.07-22.75 262.07-23.55L262.07-23.55Q262.07-24.7 262.92-25.4 263.77-26.1 265.27-26.1L265.27-26.1Q267.27-26.1 268.35-24.68 269.42-23.25 269.37-20.5L269.37-20.5Q270.22-23.25 271.92-24.7 273.62-26.15 276.02-26.15L276.02-26.15ZM307.22-23.45L307.27-2.5Q307.27 11.55 295.27 11.55L295.27 11.55Q291.52 11.55 289.02 10.28 286.52 9 286.52 6.2L286.52 6.2Q286.52 4.75 287.45 3.78 288.37 2.8 289.87 2.8L289.87 2.8Q291.37 2.8 291.97 3.65L291.97 3.65Q291.32 4.1 291.02 4.78 290.72 5.45 290.72 6.05L290.72 6.05Q290.72 7.9 292.05 8.85 293.37 9.8 295.27 9.8L295.27 9.8Q303.02 9.8 303.02-2.25L303.02-2.25Q303.02-3.25 303.22-5.95L303.22-5.95Q302.17-2.9 300-1.25 297.82 0.4 294.62 0.4L294.62 0.4Q290.77 0.4 288.9-2 287.02-4.4 287.02-10L287.02-10 287.02-19.55Q287.02-23.05 286.32-25.1L286.32-25.1Q287.57-26.15 288.92-26.15L288.92-26.15Q290.07-26.15 290.8-25.48 291.52-24.8 291.52-23.65L291.52-23.65 291.52-10.6Q291.52-6.1 292.52-4.05 293.52-2 295.92-2L295.92-2Q298.87-2 300.82-4.93 302.77-7.85 302.77-13.8L302.77-13.8Q302.77-19.9 302.67-21.8 302.57-23.7 302.02-25.15L302.02-25.15Q303.17-26.15 304.62-26.15L304.62-26.15Q305.72-26.15 306.47-25.43 307.22-24.7 307.22-23.45L307.22-23.45ZM337.42-3.8Q337.97-3 337.97-2.1L337.97-2.1Q337.97-1 337.02-0.3 336.07 0.4 334.62 0.4L334.62 0.4Q330.37 0.4 330.22-6.15L330.22-6.15Q329.07-2.9 326.84-1.13 324.62 0.65 321.42 0.65L321.42 0.65Q316.72 0.65 314.74-2.88 312.77-6.4 312.77-11.6L312.77-11.6Q312.77-18.5 315.52-22.33 318.27-26.15 323.32-26.15L323.32-26.15Q325.82-26.15 327.54-25.15 329.27-24.15 330.02-22.35L330.02-22.35 330.02-28.15Q330.02-32.8 329.27-35.5L329.27-35.5Q330.32-36.55 331.87-36.55L331.87-36.55Q333.02-36.55 333.77-35.88 334.52-35.2 334.52-34.05L334.52-34.05 334.47-5.65Q334.47-3.05 336.07-3.05L336.07-3.05Q337.02-3.05 337.42-3.8L337.42-3.8ZM322.67-2.05Q324.92-2.05 326.59-3.85 328.27-5.65 329.12-8.7 329.97-11.75 329.97-15.35L329.97-15.35Q329.97-23.6 324.17-23.6L324.17-23.6Q320.97-23.6 319.29-20.58 317.62-17.55 317.62-11.75L317.62-11.75Q317.62-7.25 318.67-4.65 319.72-2.05 322.67-2.05L322.67-2.05ZM365.87-3.95Q366.42-3.15 366.42-2.25L366.42-2.25Q366.42-1.1 365.34-0.3 364.27 0.5 362.72 0.5L362.72 0.5Q360.42 0.5 359.27-1.1 358.12-2.7 358.12-6.1L358.12-6.1 358.12-6.9Q356.57-3.5 353.82-1.48 351.07 0.55 347.67 0.55L347.67 0.55Q344.77 0.55 343.07-1.03 341.37-2.6 341.37-5.25L341.37-5.25Q341.37-8.25 343.67-10.33 345.97-12.4 349.72-13.45L349.72-13.45Q353.72-14.5 357.87-14.35L357.87-14.35 357.87-15.6Q357.87-20.05 356.49-22.15 355.12-24.25 351.92-24.25L351.92-24.25Q349.87-24.25 348.47-23.3 347.07-22.35 347.07-20.25L347.07-20.25Q347.07-19.15 347.59-18.13 348.12-17.1 349.17-16.7L349.17-16.7Q348.27-15.65 346.52-15.65L346.52-15.65Q344.72-15.65 343.62-16.98 342.52-18.3 342.52-20.1L342.52-20.1Q342.52-23 345.14-24.58 347.77-26.15 352.32-26.15L352.32-26.15Q357.57-26.15 360.04-23.55 362.52-20.95 362.52-15.35L362.52-15.35 362.52-5.65Q362.52-3 364.27-3L364.27-3Q364.67-3 365.12-3.25 365.57-3.5 365.87-3.95L365.87-3.95ZM349.62-2.55Q351.47-2.55 353.42-3.98 355.37-5.4 356.67-7.73 357.97-10.05 358.02-12.65L358.02-12.65Q356.17-12.75 354.12-12.48 352.07-12.2 350.67-11.6L350.67-11.6Q348.57-10.8 347.44-9.45 346.32-8.1 346.32-6.25L346.32-6.25Q346.32-4.65 347.12-3.6 347.92-2.55 349.62-2.55L349.62-2.55ZM390.86-23.45L390.91-2.5Q390.91 11.55 378.91 11.55L378.91 11.55Q375.16 11.55 372.66 10.28 370.16 9 370.16 6.2L370.16 6.2Q370.16 4.75 371.09 3.78 372.01 2.8 373.51 2.8L373.51 2.8Q375.01 2.8 375.61 3.65L375.61 3.65Q374.96 4.1 374.66 4.78 374.36 5.45 374.36 6.05L374.36 6.05Q374.36 7.9 375.69 8.85 377.01 9.8 378.91 9.8L378.91 9.8Q386.66 9.8 386.66-2.25L386.66-2.25Q386.66-3.25 386.86-5.95L386.86-5.95Q385.81-2.9 383.64-1.25 381.46 0.4 378.26 0.4L378.26 0.4Q374.41 0.4 372.54-2 370.66-4.4 370.66-10L370.66-10 370.66-19.55Q370.66-23.05 369.96-25.1L369.96-25.1Q371.21-26.15 372.56-26.15L372.56-26.15Q373.71-26.15 374.44-25.48 375.16-24.8 375.16-23.65L375.16-23.65 375.16-10.6Q375.16-6.1 376.16-4.05 377.16-2 379.56-2L379.56-2Q382.51-2 384.46-4.93 386.41-7.85 386.41-13.8L386.41-13.8Q386.41-19.9 386.31-21.8 386.21-23.7 385.66-25.15L385.66-25.15Q386.81-26.15 388.26-26.15L388.26-26.15Q389.36-26.15 390.11-25.43 390.86-24.7 390.86-23.45L390.86-23.45ZM399.26-35.9L400.36-9.25 403.66-9.25 404.56-35.9Q403.41-36.3 401.91-36.3L401.91-36.3Q400.46-36.3 399.26-35.9L399.26-35.9ZM401.86 0.65Q400.66 0.65 399.81-0.2 398.96-1.05 398.96-2.25L398.96-2.25Q398.96-3.5 399.81-4.35 400.66-5.2 401.86-5.2L401.86-5.2Q403.06-5.2 403.94-4.35 404.81-3.5 404.81-2.25L404.81-2.25Q404.81-1.05 403.94-0.2 403.06 0.65 401.86 0.65L401.86 0.65Z" opacity="1" transform="matrix(1,0,0,1,0,0)" fill="#0080ff" class="undefined-text-1" data-fill-palette-color="secondary" id="text-1"></path></svg></g></svg></g></svg></g></svg></g><g transform="matrix(1,0,0,1,36.672,0)"><svg viewBox="0 0 118.656 109.3345678835596" height="109.3345678835596" width="118.656"><g><svg xmlns="http://www.w3.org/2000/svg" xmlns:xlink="http://www.w3.org/1999/xlink" version="1.1" x="0" y="0" viewBox="5.8489990234375 9.322000503540039 88.29100036621094 81.35499572753906" enable-background="new 0 0 100 100" xml:space="preserve" height="109.3345678835596" width="118.656" class="icon-icon-0" data-fill-palette-color="accent" id="icon-0"><path d="M72.311 9.322c-12.4 0-19.899 8.299-22.405 11.063-2.51-2.417-12.662-10.952-22.361-10.952-10.665 0-21.696 8.93-21.696 23.874 0 14.67 15.325 28.73 26.515 38.996l17.625 18.374 17.569-18.267C78.776 62.121 94.14 48.027 94.14 33.308 94.14 18.961 85.367 9.322 72.311 9.322zM68.299 56.822H56.995v10.982H42.615V56.822H31.634V42.443h10.982V31.139h14.379v11.304h11.305V56.822z" fill="#0080ff" data-fill-palette-color="accent"></path></svg></g></svg></g><g></g></svg></g></svg></g></svg></g></svg></g></svg><rect width="320" height="360" fill="none" stroke="none" visibility="hidden"></rect></g></svg></g></svg>