<svg xmlns="http://www.w3.org/2000/svg" version="1.1" xmlns:xlink="http://www.w3.org/1999/xlink" xmlns:svgjs="http://svgjs.dev/svgjs" width="1000" height="1000" viewBox="0 0 1000 1000"><rect width="1000" height="1000" fill="#000000"></rect><g transform="matrix(0.7,0,0,0.7,150.0000000000001,106.25)"><svg viewBox="0 0 320 360" data-background-color="#ffffff" preserveAspectRatio="xMidYMid meet" height="1125" width="1000" xmlns="http://www.w3.org/2000/svg" xmlns:xlink="http://www.w3.org/1999/xlink"><defs></defs><g id="tight-bounds" transform="matrix(1,0,0,1,0,0)"><svg viewBox="0 0 320 360" height="360" width="320"><g><svg></svg></g><g><svg viewBox="0 0 320 360" height="360" width="320"><g><path d="M20.961 227.22l3.726 4.658-1.863-6.056c-0.466-2.795-3.726 0.466-1.863 1.398M25.153 224.425c1.397 2.329 2.795 4.658 2.795 6.987 0 3.261 2.795 4.658 5.123 5.589-3.261-3.726-5.124-13.974-7.918-12.576M204.017 26.929c7.918 0 15.371-0.932 23.756 0.931 20.495 5.124 37.729 15.371 49.374 29.811l32.606 52.169c1.397 13.042 4.192 27.482 3.726 43.319 3.261 0 2.795-4.658 6.521-5.59-3.726 9.316-5.59 20.961-6.521 34.469-2.329-7.453 0-18.632 0.466-24.687-3.261 5.124-5.124 1.397-5.124-0.932 0.466-3.726-1.397-3.261-2.795-4.658-5.124-4.658-8.384-9.782-12.11-17.7 2.329-6.055 2.795-14.905-4.658-19.563-2.329-1.397-5.124-3.726-6.521-7.453-1.863-5.124-5.124-11.179-4.193-19.097 0.466-2.329-6.987 5.124-11.179 1.863-18.166-12.576-36.332-27.016-58.224-39.127-11.645 0-20.029-4.192-24.221-9.316-3.726-4.658-0.932-10.713 4.658-11.179 3.261 0 6.987-0.932 9.782 0.932 0.466-1.863 2.329-4.192 4.657-4.192M157.904 16.215l0.932 0.466c4.658 0.932 6.987 7.453 12.11 5.124 0 3.261 0.466 6.521-0.466 8.85-1.397 3.726-5.59 3.726-8.85 3.726-31.208-1.863-49.374 11.179-68.471 22.358-5.124 3.261-10.713 5.59-14.906 9.782-20.029 18.632-41.921 35.866-47.045 70.335l-4.192 38.195c-0.466 4.192-5.124 8.384-4.192 13.508l3.26 22.824c-3.261-3.261-5.124 0.932-4.192 2.795 0.466 1.397 2.329 6.055 5.124 1.863 3.726 6.987 7.453 20.495 12.576 26.55 15.837 18.632 36.332 35.4 53.101 52.169 4.192-0.932 7.453-0.932 8.384-3.727 1.397 2.795-1.397 5.59-3.726 6.056 7.453 4.658 15.837 8.85 27.016 9.781 14.44 0.932 27.948 3.261 40.524 6.522 6.521-1.863 13.042-2.795 20.029-3.261 2.329 0 3.726-3.726 6.521-4.658l0.466-4.658c2.795 4.192 2.329-1.397 0.466-4.192 3.261 2.795 4.192 5.124 5.589 6.987 0-1.397 3.726-6.521 3.727-0.466l0.931-6.055c1.397-0.932 1.863 5.124 3.261 0.931 1.397-4.192 4.192-0.932 6.987-2.329-0.932 1.863-0.466 5.59 2.794 3.261l3.727-3.261c2.329 5.59 6.055 3.261 7.918 2.329 20.495-13.042 40.99-28.413 60.553-43.784l-0.466 6.055 2.329-7.453c2.329 2.329 4.192 0.466 5.124-0.931 2.795-4.658 6.521-9.316 12.577-13.508-7.453 20.029-16.303 35.866-27.482 48.908l-4.658 5.59c0 3.261-0.932 7.453-4.658 7.918-1.863 0.466-5.59-0.932-8.384 1.863-1.397 1.863 3.261 5.59-0.466 2.795-3.261-2.329-6.521 0-10.248 0.932-2.795 0.932 1.863 3.726 2.795 5.589 0.932 1.863 1.863 3.726 1.398 6.056l-5.124-5.59c-6.055 3.261-9.782 9.316-14.906 13.974-2.329 1.863-1.397 5.124-1.397 7.918-3.261 0-6.987-0.932-8.85 0.932-1.397 1.863-0.932 4.658-0.932 7.453-4.658-0.466-5.124-7.453-9.315-6.056-4.192 0.932-8.85 1.397-12.577 3.727 2.795 5.59-4.658 2.329-3.726 3.26-6.987-4.192-13.042-7.453-20.495-4.658-15.837-5.124-35.4-2.795-49.84-0.931 0-2.329 0.466-4.658-0.466-5.124-0.932 2.329-3.726 1.397-3.26 1.397-8.85-6.055-17.7-9.782-27.016-14.905-8.384 0.932-16.303-3.261-18.632-5.59-6.521-6.055-13.974-2.795-20.029-4.192-13.042-3.261-17.7-16.769-19.098-26.084-0.932-4.658-4.658-6.521-6.055-6.056-6.055-19.563-15.371-37.263-22.824-55.429-1.863-4.658-1.397-9.316-1.397-14.44 2.329 0.932 4.658 0.466 4.192-2.794-2.329-15.371-7.918-27.016-13.974-38.195 3.261-15.837 3.726-34.469 11.179-48.443 6.521-12.576 18.632-19.098 27.016-29.811 2.795-3.726 2.795-8.85 5.59-12.11 9.316-9.316 18.632-19.098 28.879-27.482 4.658-3.726 10.247 0 17.234-1.397 2.329-8.384 11.645-15.837 20.495-13.508 3.726 0.932 11.179-8.85 13.508-9.782 3.726-1.397 1.863 3.726 1.863 6.987 8.85-6.987 20.961-10.713 32.14-14.906" fill="#95aac1" data-fill-palette-color="tertiary"></path></g><g transform="matrix(1,0,0,1,64.00000000000001,146.5110467836664)"><svg viewBox="0 0 191.99999999999997 66.97790643266724" height="66.97790643266724" width="191.99999999999997"><g><svg viewBox="0 0 191.99999999999997 66.97790643266724" height="66.97790643266724" width="191.99999999999997"><g><svg viewBox="0 0 191.99999999999997 66.97790643266724" height="66.97790643266724" width="191.99999999999997"><g transform="matrix(1,0,0,1,0,40.48268488618592)"><svg viewBox="0 0 191.99999999999997 26.495221546481318" height="26.495221546481318" width="191.99999999999997"><g><svg viewBox="0 0 191.99999999999997 26.495221546481318" height="26.495221546481318" width="191.99999999999997"><g><svg viewBox="0 0 191.99999999999997 26.495221546481318" height="26.495221546481318" width="191.99999999999997"><g transform="matrix(1,0,0,1,0,0)"><svg width="191.99999999999997" viewBox="1.5 -35.9 345.27 47.65" height="26.495221546481318" data-palette-color="#395b79"><path d="M8.55 0L1.5-34.6 5.5-34.6 11.4-3.4 12.85-3.4 19.9-34.3 24.4-34.3 31.45-3.4 32.9-3.4 38.8-34.6 42.75-34.6 35.75 0 28.7 0 22.15-29.55 15.6 0 8.55 0ZM63.9-3.1L63.9-3.1 65.35-3.25 65.45-0.3Q59.75 0.5 55.7 0.5L55.7 0.5Q50.3 0.5 48.05-2.63 45.8-5.75 45.8-12.35L45.8-12.35Q45.8-25.5 56.25-25.5L56.25-25.5Q61.3-25.5 63.8-22.68 66.3-19.85 66.3-13.8L66.3-13.8 66.1-10.95 49.6-10.95Q49.6-6.8 51.1-4.8 52.6-2.8 56.32-2.8 60.05-2.8 63.9-3.1ZM49.55-13.95L62.55-13.95Q62.55-18.55 61.07-20.45 59.6-22.35 56.27-22.35 52.95-22.35 51.27-20.35 49.6-18.35 49.55-13.95L49.55-13.95ZM75.9 0L72.15 0 72.15-25 75.9-25 75.9 0ZM75.9-30.65L72.15-30.65 72.15-35 75.9-35 75.9-30.65ZM92.74 11.75L92.74 11.75Q86.74 11.75 84.37 10.13 81.99 8.5 81.99 4.2L81.99 4.2Q81.99 2.15 82.89 0.88 83.79-0.4 85.94-2L85.94-2Q84.54-2.95 84.54-5.45L84.54-5.45Q84.54-6.3 85.79-8.6L85.79-8.6 86.24-9.4Q82.29-11.2 82.29-16.95L82.29-16.95Q82.29-25.5 91.64-25.5L91.64-25.5Q94.04-25.5 96.09-25L96.09-25 96.84-24.85 104.24-25.05 104.24-21.85 99.49-21.95Q101.14-20.3 101.14-16.95L101.14-16.95Q101.14-12.25 98.82-10.38 96.49-8.5 91.49-8.5L91.49-8.5Q90.14-8.5 89.04-8.7L89.04-8.7Q88.14-6.5 88.14-5.85L88.14-5.85Q88.14-4.3 89.09-3.93 90.04-3.55 94.84-3.55 99.64-3.55 101.74-2.05 103.84-0.55 103.84 3.8L103.84 3.8Q103.84 11.75 92.74 11.75ZM85.69 3.9L85.69 3.9Q85.69 6.55 87.17 7.58 88.64 8.6 92.62 8.6 96.59 8.6 98.32 7.5 100.04 6.4 100.04 3.83 100.04 1.25 98.79 0.5 97.54-0.25 93.89-0.25L93.89-0.25 88.49-0.5Q86.84 0.7 86.27 1.6 85.69 2.5 85.69 3.9ZM86.04-16.95Q86.04-14 87.37-12.75 88.69-11.5 91.74-11.5 94.79-11.5 96.09-12.75 97.39-14 97.39-16.98 97.39-19.95 96.09-21.2 94.79-22.45 91.74-22.45 88.69-22.45 87.37-21.18 86.04-19.9 86.04-16.95ZM112.54-20.65L112.54 0 108.79 0 108.79-35.9 112.54-35.9 112.54-23.6Q116.54-25.5 120.24-25.5L120.24-25.5Q125.24-25.5 126.97-22.8 128.69-20.1 128.69-13.2L128.69-13.2 128.69 0 124.94 0 124.94-13.1Q124.94-18.3 123.92-20.23 122.89-22.15 119.59-22.15L119.59-22.15Q116.44-22.15 113.49-21L113.49-21 112.54-20.65ZM148.44-25L148.44-21.75 140.49-21.75 140.49-9.8Q140.49-5.5 141.11-4.15 141.74-2.8 144.09-2.8L144.09-2.8 148.54-3.1 148.79 0Q145.44 0.55 143.69 0.55L143.69 0.55Q139.79 0.55 138.29-1.35 136.79-3.25 136.79-8.6L136.79-8.6 136.79-21.75 133.24-21.75 133.24-25 136.79-25 136.79-32.65 140.49-32.65 140.49-25 148.44-25ZM168.53 0L164.68 0 164.68-34.6 171.63-34.6 181.43-5.35 191.23-34.6 198.18-34.6 198.18 0 194.33 0 194.33-30.5 193.63-30.5 183.58-1.25 179.28-1.25 169.23-30.5 168.53-30.5 168.53 0ZM223.68-17.45L223.68-17.45 223.68-4.65Q223.83-2.8 226.58-2.45L226.58-2.45 226.43 0.5Q222.48 0.5 220.48-1.5L220.48-1.5Q215.98 0.5 211.48 0.5L211.48 0.5Q208.03 0.5 206.23-1.45 204.43-3.4 204.43-7.05 204.43-10.7 206.28-12.43 208.13-14.15 212.08-14.55L212.08-14.55 219.93-15.3 219.93-17.45Q219.93-20 218.83-21.1 217.73-22.2 215.83-22.2L215.83-22.2Q211.83-22.2 207.53-21.7L207.53-21.7 205.98-21.55 205.83-24.4Q211.33-25.5 215.58-25.5 219.83-25.5 221.76-23.55 223.68-21.6 223.68-17.45ZM208.28-7.25L208.28-7.25Q208.28-2.65 212.08-2.65L212.08-2.65Q215.48-2.65 218.78-3.8L218.78-3.8 219.93-4.2 219.93-12.45 212.53-11.75Q210.28-11.55 209.28-10.45 208.28-9.35 208.28-7.25ZM234.83-20.3L234.83 0 231.08 0 231.08-25 234.78-25 234.78-23.25Q238.83-25.5 242.53-25.5L242.53-25.5Q247.53-25.5 249.25-22.8 250.98-20.1 250.98-13.2L250.98-13.2 250.98 0 247.28 0 247.28-13.1Q247.28-18.3 246.25-20.23 245.23-22.15 241.88-22.15L241.88-22.15Q240.28-22.15 238.5-21.68 236.73-21.2 235.78-20.75L235.78-20.75 234.83-20.3ZM275.58-17.45L275.58-17.45 275.58-4.65Q275.73-2.8 278.48-2.45L278.48-2.45 278.33 0.5Q274.38 0.5 272.38-1.5L272.38-1.5Q267.88 0.5 263.38 0.5L263.38 0.5Q259.93 0.5 258.13-1.45 256.33-3.4 256.33-7.05 256.33-10.7 258.18-12.43 260.03-14.15 263.98-14.55L263.98-14.55 271.83-15.3 271.83-17.45Q271.83-20 270.73-21.1 269.63-22.2 267.73-22.2L267.73-22.2Q263.73-22.2 259.43-21.7L259.43-21.7 257.88-21.55 257.73-24.4Q263.23-25.5 267.48-25.5 271.73-25.5 273.65-23.55 275.58-21.6 275.58-17.45ZM260.18-7.25L260.18-7.25Q260.18-2.65 263.98-2.65L263.98-2.65Q267.38-2.65 270.68-3.8L270.68-3.8 271.83-4.2 271.83-12.45 264.43-11.75Q262.18-11.55 261.18-10.45 260.18-9.35 260.18-7.25ZM292.62 11.75L292.62 11.75Q286.62 11.75 284.25 10.13 281.87 8.5 281.87 4.2L281.87 4.2Q281.87 2.15 282.77 0.88 283.67-0.4 285.82-2L285.82-2Q284.42-2.95 284.42-5.45L284.42-5.45Q284.42-6.3 285.67-8.6L285.67-8.6 286.12-9.4Q282.17-11.2 282.17-16.95L282.17-16.95Q282.17-25.5 291.52-25.5L291.52-25.5Q293.92-25.5 295.97-25L295.97-25 296.72-24.85 304.12-25.05 304.12-21.85 299.37-21.95Q301.02-20.3 301.02-16.95L301.02-16.95Q301.02-12.25 298.7-10.38 296.37-8.5 291.37-8.5L291.37-8.5Q290.02-8.5 288.92-8.7L288.92-8.7Q288.02-6.5 288.02-5.85L288.02-5.85Q288.02-4.3 288.97-3.93 289.92-3.55 294.72-3.55 299.52-3.55 301.62-2.05 303.72-0.55 303.72 3.8L303.72 3.8Q303.72 11.75 292.62 11.75ZM285.57 3.9L285.57 3.9Q285.57 6.55 287.05 7.58 288.52 8.6 292.5 8.6 296.47 8.6 298.2 7.5 299.92 6.4 299.92 3.83 299.92 1.25 298.67 0.5 297.42-0.25 293.77-0.25L293.77-0.25 288.37-0.5Q286.72 0.7 286.15 1.6 285.57 2.5 285.57 3.9ZM285.92-16.95Q285.92-14 287.25-12.75 288.57-11.5 291.62-11.5 294.67-11.5 295.97-12.75 297.27-14 297.27-16.98 297.27-19.95 295.97-21.2 294.67-22.45 291.62-22.45 288.57-22.45 287.25-21.18 285.92-19.9 285.92-16.95ZM325.67-3.1L325.67-3.1 327.12-3.25 327.22-0.3Q321.52 0.5 317.47 0.5L317.47 0.5Q312.07 0.5 309.82-2.63 307.57-5.75 307.57-12.35L307.57-12.35Q307.57-25.5 318.02-25.5L318.02-25.5Q323.07-25.5 325.57-22.68 328.07-19.85 328.07-13.8L328.07-13.8 327.87-10.95 311.37-10.95Q311.37-6.8 312.87-4.8 314.37-2.8 318.1-2.8 321.82-2.8 325.67-3.1ZM311.32-13.95L324.32-13.95Q324.32-18.55 322.85-20.45 321.37-22.35 318.05-22.35 314.72-22.35 313.05-20.35 311.37-18.35 311.32-13.95L311.32-13.95ZM337.67 0L333.92 0 333.92-25 337.62-25 337.62-21.6Q341.97-24.6 346.77-25.55L346.77-25.55 346.77-21.75Q344.67-21.35 342.39-20.5 340.12-19.65 338.92-19L338.92-19 337.67-18.35 337.67 0Z" opacity="1" transform="matrix(1,0,0,1,0,0)" fill="#ffffff" class="undefined-text-0" data-fill-palette-color="primary" id="text-0"></path></svg></g></svg></g></svg></g></svg></g><g transform="matrix(1,0,0,1,76.13091859821492,0)"><svg viewBox="0 0 39.73816280357014 36.616396177237185" height="36.616396177237185" width="39.73816280357014"><g><svg xmlns="http://www.w3.org/2000/svg" xmlns:xlink="http://www.w3.org/1999/xlink" version="1.1" x="0" y="0" viewBox="5.849000000000004 9.322 88.291 81.35499999999999" enable-background="new 0 0 100 100" xml:space="preserve" height="36.616396177237185" width="39.73816280357014" class="icon-icon-0" data-fill-palette-color="accent" id="icon-0"><path d="M72.311 9.322c-12.4 0-19.899 8.299-22.405 11.063-2.51-2.417-12.662-10.952-22.361-10.952-10.665 0-21.696 8.93-21.696 23.874 0 14.67 15.325 28.73 26.515 38.996l17.625 18.374 17.569-18.267C78.776 62.121 94.14 48.027 94.14 33.308 94.14 18.961 85.367 9.322 72.311 9.322zM68.299 56.822H56.995v10.982H42.615V56.822H31.634V42.443h10.982V31.139h14.379v11.304h11.305V56.822z" fill="#ffffff" data-fill-palette-color="accent"></path></svg></g></svg></g><g></g></svg></g></svg></g></svg></g></svg></g></svg><rect width="320" height="360" fill="none" stroke="none" visibility="hidden"></rect></g></svg></g></svg>